<?xml version="1.0" standalone="no"?>
<!DOCTYPE svg PUBLIC "-//W3C//DTD SVG 20010904//EN"
 "http://www.w3.org/TR/2001/REC-SVG-20010904/DTD/svg10.dtd">
<svg version="1.0" xmlns="http://www.w3.org/2000/svg"
 width="2480.000000pt" height="3508.000000pt" viewBox="0 0 2480.000000 3508.000000"
 preserveAspectRatio="xMidYMid meet">

<g transform="translate(0.000000,3508.000000) scale(0.100000,-0.100000)"
fill="#000000" stroke="none">
<path d="M6678 26041 c-39 -8 -54 -17 -132 -78 -54 -42 -105 -128 -106 -178 0
-16 -7 -41 -15 -55 -10 -17 -14 -57 -15 -123 0 -72 -4 -107 -17 -130 -12 -22
-17 -58 -17 -120 -1 -100 -12 -117 -72 -117 -18 0 -43 -4 -56 -9 -29 -11 -78
-59 -78 -77 0 -8 -15 -34 -34 -59 -19 -24 -39 -63 -45 -87 -5 -24 -22 -76 -36
-117 -20 -55 -25 -86 -21 -115 10 -69 8 -75 -29 -126 -19 -26 -45 -78 -56
-115 -12 -36 -38 -92 -59 -123 -21 -31 -50 -88 -65 -127 -15 -38 -40 -102 -56
-142 -16 -40 -35 -107 -43 -150 -18 -102 -24 -115 -90 -197 -71 -89 -123 -194
-142 -290 -23 -110 -14 -123 101 -159 50 -16 106 -38 125 -48 19 -11 55 -29
80 -41 25 -11 97 -45 160 -75 63 -31 124 -59 136 -63 27 -11 203 -126 229
-150 11 -11 38 -26 60 -35 21 -10 57 -32 80 -50 58 -47 78 -55 132 -54 71 0
134 29 155 70 10 19 18 46 18 61 0 20 8 31 28 42 50 26 109 95 123 143 9 34
20 50 43 62 62 32 111 93 134 167 11 38 24 86 27 106 3 21 16 50 28 65 13 15
36 57 51 93 16 36 39 83 51 105 13 22 35 73 49 114 15 41 40 89 56 108 16 18
32 46 36 61 3 15 14 49 25 76 10 27 19 56 19 65 0 9 14 43 30 75 17 32 30 74
30 92 0 38 17 123 28 140 4 6 17 15 30 19 25 7 15 18 168 -160 77 -89 143
-184 182 -261 l21 -41 -31 -49 c-17 -27 -44 -78 -61 -114 -16 -36 -38 -84 -50
-106 -20 -41 -20 -43 -4 -112 20 -83 21 -111 5 -166 -12 -43 -25 -66 -36 -64
-29 3 -34 -4 -28 -38 7 -32 4 -39 -30 -67 -111 -97 -229 -219 -270 -281 -26
-39 -53 -76 -61 -82 -10 -9 -12 -25 -7 -62 7 -54 19 -64 88 -77 26 -5 36 -12
36 -26 0 -10 -4 -21 -10 -24 -5 -3 -10 -25 -10 -47 0 -30 6 -46 24 -63 16 -15
26 -38 31 -72 4 -33 14 -58 28 -72 27 -24 88 -51 118 -51 19 0 20 -4 14 -32
-20 -95 -17 -131 16 -213 17 -44 38 -89 45 -100 8 -11 14 -45 14 -83 0 -124
45 -172 162 -172 66 0 118 -12 118 -27 0 -5 -22 -23 -48 -41 -89 -61 -151
-117 -157 -142 -14 -54 -25 -67 -94 -105 -40 -21 -91 -59 -114 -84 -52 -58
-82 -79 -132 -92 -27 -7 -53 -24 -80 -54 -33 -36 -51 -47 -100 -60 -33 -8 -71
-24 -85 -35 -40 -32 -109 -66 -203 -99 -49 -17 -107 -42 -130 -55 -47 -28
-174 -82 -227 -98 -19 -5 -52 -23 -72 -39 -20 -16 -47 -29 -60 -29 -29 -1 -99
-32 -141 -64 -18 -14 -64 -37 -102 -51 -62 -24 -76 -25 -160 -19 -104 7 -152
-7 -213 -64 -20 -18 -49 -34 -70 -37 -81 -13 -129 -27 -169 -51 -33 -19 -50
-23 -81 -18 -32 5 -51 0 -108 -29 -84 -42 -232 -97 -339 -127 -44 -12 -87 -28
-96 -36 -24 -22 -43 -18 -204 42 -257 96 -277 102 -391 120 -104 15 -114 15
-145 0 -37 -18 -168 -22 -237 -6 -28 7 -56 7 -78 1 -43 -12 -75 -1 -213 68
-54 27 -178 74 -275 105 -202 65 -300 107 -383 165 -129 90 -358 153 -475 130
-88 -17 -115 -12 -150 27 -47 51 -102 77 -148 70 -33 -5 -50 2 -156 65 -75 44
-136 74 -167 80 -27 5 -75 20 -106 34 -54 23 -258 65 -320 65 -20 0 -44 13
-76 40 -25 22 -52 40 -59 40 -21 0 -66 -40 -66 -58 -1 -22 -45 -72 -63 -72
-20 0 -52 38 -77 92 -24 53 -76 103 -126 124 -18 8 -46 30 -61 51 -15 20 -44
55 -64 77 -20 23 -60 77 -89 121 -93 140 -204 261 -249 272 -40 10 -75 -17
-79 -58 -3 -32 7 -47 85 -144 98 -120 148 -185 198 -260 18 -27 59 -79 90
-115 31 -36 68 -85 83 -110 14 -25 53 -74 85 -110 87 -95 88 -99 40 -162 -71
-94 -127 -306 -88 -338 7 -6 28 -36 44 -65 17 -30 62 -89 102 -132 105 -115
123 -147 120 -210 -2 -64 20 -108 62 -123 40 -14 169 -13 204 1 16 7 73 11
135 10 83 -2 114 1 139 15 27 13 49 15 118 10 76 -5 90 -4 116 14 34 23 46 24
98 9 46 -13 77 -41 77 -71 0 -13 14 -41 30 -62 19 -24 30 -52 30 -71 0 -22 12
-46 43 -82 23 -28 62 -78 87 -113 24 -34 64 -76 88 -92 38 -26 53 -30 110 -30
40 0 81 -7 106 -18 23 -10 75 -26 116 -35 41 -9 91 -23 110 -31 19 -7 71 -23
115 -34 245 -65 457 -143 510 -189 28 -25 59 -35 245 -81 91 -22 190 -48 220
-56 112 -32 207 -53 270 -59 36 -4 115 -22 176 -41 109 -34 184 -75 259 -143
56 -51 93 -71 169 -90 63 -16 88 -17 153 -10 113 14 243 46 342 84 48 18 113
38 146 45 51 11 67 20 109 62 73 75 139 96 191 62 18 -12 41 -15 97 -11 112 7
256 26 328 43 89 22 440 36 550 22 92 -11 182 -45 198 -75 17 -33 41 -165 53
-293 6 -69 15 -161 20 -205 5 -44 13 -258 19 -475 5 -217 16 -483 25 -590 8
-107 15 -234 15 -281 0 -47 5 -121 11 -165 9 -71 7 -97 -20 -265 -17 -103 -31
-211 -31 -240 0 -30 -6 -112 -14 -184 -9 -71 -20 -177 -25 -235 -6 -58 -15
-143 -20 -190 -6 -47 -15 -157 -21 -245 -7 -88 -16 -221 -22 -295 -14 -183
-14 -330 0 -550 17 -273 31 -350 63 -350 5 0 56 -23 112 -50 57 -28 132 -56
167 -64 36 -8 110 -25 165 -39 55 -14 129 -30 165 -37 94 -18 285 -27 355 -17
33 5 155 6 270 2 137 -4 227 -2 260 5 58 13 185 34 305 51 47 6 114 18 150 27
36 8 121 18 190 22 118 7 181 15 309 40 90 17 114 13 162 -25 103 -81 297
-112 749 -119 147 -3 224 -8 243 -17 38 -17 86 6 123 62 16 23 46 61 67 83 34
36 38 45 32 76 -3 19 -6 45 -6 58 -1 37 56 143 98 183 51 48 64 90 70 227 5
109 5 113 -21 150 -14 21 -26 51 -26 68 0 16 -7 70 -15 119 -8 50 -14 140 -13
201 1 121 -2 131 -71 240 -24 38 -35 71 -43 125 -16 119 -35 214 -72 378 -20
85 -36 169 -36 187 0 46 11 94 22 94 4 0 31 -17 58 -37 46 -34 49 -40 55 -92
4 -31 11 -74 16 -96 5 -22 9 -69 9 -105 0 -62 -4 -80 -31 -178 -11 -40 -10
-47 21 -108 19 -36 49 -79 69 -96 44 -39 123 -74 187 -83 124 -18 342 -116
401 -180 31 -34 32 -35 113 -35 108 0 257 -48 338 -109 37 -27 335 -345 367
-392 19 -27 47 -50 212 -178 39 -29 78 -67 88 -83 9 -16 48 -50 87 -75 83 -54
131 -100 158 -152 11 -22 36 -53 56 -70 35 -28 37 -32 26 -56 -17 -37 -15 -59
8 -80 13 -12 20 -31 20 -55 0 -36 23 -70 47 -70 5 0 18 -9 28 -20 10 -11 26
-20 36 -20 10 0 26 -11 37 -25 16 -20 32 -26 83 -31 37 -4 72 -14 83 -23 15
-13 52 -16 229 -19 209 -2 212 -3 232 -26 19 -23 27 -24 175 -29 172 -6 210
-14 252 -54 l29 -28 187 -2 c190 -2 277 9 428 52 28 8 62 15 77 15 34 0 105
31 142 62 17 14 49 35 73 47 24 12 62 40 84 62 23 22 53 47 68 54 14 7 54 45
90 84 35 40 74 74 87 77 34 9 88 75 107 131 12 35 29 60 62 87 46 39 83 102
84 143 0 12 13 31 30 43 16 12 33 32 36 46 6 23 88 104 105 104 5 0 9 12 9 26
0 16 17 43 49 77 43 47 109 143 148 220 11 20 22 27 43 27 32 0 68 39 89 100
7 19 17 44 21 55 17 41 90 262 106 320 28 107 34 129 43 170 5 22 16 65 24 95
8 30 21 87 28 125 7 39 20 84 29 100 9 17 20 44 24 60 6 25 22 63 66 155 17
36 65 307 75 425 3 39 10 104 15 145 25 203 27 243 20 375 -8 125 -13 152 -47
250 -21 61 -42 115 -46 122 -4 6 -40 29 -81 51 -71 38 -79 40 -195 47 -67 4
-124 12 -127 16 -9 15 -253 10 -329 -6 -39 -9 -93 -20 -122 -25 -28 -5 -66
-16 -84 -26 -25 -12 -47 -15 -92 -10 -44 4 -68 2 -93 -10 -19 -9 -34 -20 -34
-24 0 -4 -14 -13 -31 -20 -39 -16 -154 2 -184 29 -11 10 -33 21 -48 25 -31 7
-43 31 -58 111 -24 123 -30 186 -24 266 11 174 49 286 138 411 48 68 62 104
71 184 3 27 17 84 31 126 14 42 32 107 41 145 8 37 30 115 49 173 18 58 38
128 44 155 28 119 31 125 55 125 44 0 59 32 65 138 6 88 9 103 44 164 21 37
43 93 49 125 7 35 27 81 49 116 21 32 53 107 73 170 30 91 36 126 35 187 0 41
0 109 1 152 l2 76 45 13 c25 6 61 23 80 36 32 21 42 23 108 17 59 -5 84 -3
136 14 35 11 91 26 124 33 61 12 165 44 198 61 10 5 93 16 185 24 266 23 291
27 388 72 94 43 131 54 259 78 44 8 91 18 105 23 14 5 48 15 75 22 28 6 55 15
60 19 22 16 86 29 200 40 309 30 337 39 440 145 57 59 95 88 135 105 30 13 69
33 85 44 29 20 155 148 210 214 28 33 126 106 179 132 16 8 68 52 116 96 48
45 98 85 111 89 57 18 156 69 182 93 16 15 49 54 74 86 47 61 81 93 143 136
40 28 160 152 238 246 54 65 102 109 129 118 20 7 73 81 126 177 46 82 48 127
10 178 -24 31 -28 45 -28 106 l0 70 65 3 c69 3 104 15 159 56 19 14 38 26 43
26 4 0 37 18 73 40 36 22 69 40 74 40 4 0 34 29 67 63 152 164 198 234 214
328 5 30 16 78 25 107 19 61 17 199 -5 320 -14 79 -17 66 58 207 32 61 77 200
96 299 10 49 33 135 52 192 19 56 34 121 34 143 0 71 40 203 71 236 24 26 29
39 29 80 -1 68 -13 90 -100 191 -70 81 -82 90 -176 134 -55 26 -126 53 -157
60 -42 8 -70 22 -103 51 -49 42 -55 44 -84 29 -13 -7 -31 -5 -61 5 -38 14 -45
14 -66 0 -12 -9 -23 -19 -23 -24 0 -4 -26 -34 -59 -67 -32 -32 -61 -70 -65
-84 -16 -58 -25 -246 -14 -303 6 -32 9 -60 6 -62 -2 -2 -68 7 -147 20 -163 29
-225 24 -323 -24 -60 -29 -70 -54 -38 -91 11 -12 20 -36 20 -51 0 -18 15 -47
43 -81 81 -101 135 -201 166 -308 23 -78 62 -151 87 -162 24 -11 57 -70 69
-126 9 -41 -14 -52 -60 -28 -19 11 -47 16 -71 14 -59 -5 -65 -24 -63 -218 1
-91 -1 -183 -5 -205 -21 -123 -32 -166 -57 -220 -27 -59 -28 -60 -90 -79 -35
-10 -81 -28 -102 -40 -38 -20 -39 -20 -52 -2 -18 24 -61 46 -91 46 -55 0 -128
-72 -205 -202 -24 -40 -31 -45 -85 -57 -49 -11 -66 -22 -110 -65 -28 -29 -71
-62 -95 -73 -24 -12 -60 -37 -79 -56 -39 -39 -183 -124 -311 -185 -46 -22
-113 -63 -149 -92 -36 -29 -104 -71 -151 -94 -47 -23 -105 -56 -130 -73 -51
-35 -120 -61 -199 -74 -71 -11 -145 -45 -158 -73 -5 -11 -35 -36 -66 -55 -57
-34 -130 -50 -309 -68 -41 -4 -60 -11 -67 -23 -6 -11 -31 -23 -62 -30 -29 -6
-64 -15 -78 -20 -14 -4 -50 -13 -80 -20 -30 -7 -59 -16 -65 -20 -10 -8 -43
-15 -134 -30 -29 -5 -64 -16 -78 -25 -20 -14 -23 -21 -17 -50 3 -19 2 -35 -2
-35 -5 -1 -47 -2 -94 -4 -60 -2 -108 -11 -163 -29 -90 -31 -106 -33 -121 -11
-10 13 -16 14 -39 3 -22 -10 -47 -10 -125 1 -53 7 -107 17 -119 21 -12 4 -73
11 -135 14 -102 5 -115 8 -138 30 -17 16 -38 25 -58 25 -29 0 -31 -2 -23 -23
18 -48 -18 -69 -85 -48 -16 5 -56 14 -89 21 -137 29 -148 34 -172 81 -29 56
-29 70 2 99 l25 23 75 -16 c85 -19 160 -22 214 -8 20 5 70 17 112 26 142 31
184 74 209 215 6 36 16 78 21 94 6 19 5 40 -2 60 -9 25 -8 41 5 79 9 26 16 64
16 83 0 22 9 47 25 68 27 35 32 75 14 93 -7 7 -9 18 -6 26 7 19 135 87 162 87
60 0 62 88 5 232 -42 105 -55 166 -70 326 -5 51 -12 97 -15 103 -4 6 -7 76 -6
157 0 145 -26 419 -51 531 -9 42 -23 65 -60 105 -27 28 -65 75 -86 104 -49 70
-166 201 -200 225 -20 13 -38 17 -68 13 -35 -4 -52 1 -118 39 -43 24 -92 49
-109 54 -112 37 -285 66 -325 56 -35 -10 -134 -23 -253 -34 -53 -5 -115 -15
-139 -21 -23 -6 -66 -15 -95 -20 -83 -14 -283 -151 -365 -251 -30 -37 -67 -74
-82 -83 -15 -9 -37 -31 -50 -49 -12 -18 -25 -34 -29 -37 -17 -13 -49 -77 -49
-99 0 -13 -8 -49 -19 -80 -62 -187 -65 -199 -53 -240 7 -21 12 -81 12 -132 0
-110 17 -255 33 -284 10 -19 28 -84 47 -170 14 -62 12 -142 -5 -182 -8 -19
-15 -45 -15 -56 0 -23 -83 -199 -104 -220 -8 -8 -48 -65 -89 -128 -51 -78 -96
-133 -143 -175 -38 -34 -106 -98 -152 -142 -45 -44 -99 -88 -119 -97 -21 -10
-60 -39 -88 -65 -27 -26 -77 -64 -110 -85 -33 -21 -80 -56 -105 -77 -25 -22
-83 -58 -130 -80 -47 -21 -93 -44 -102 -49 -17 -8 -28 -14 -77 -39 -11 -5 -42
-12 -70 -16 -34 -4 -57 -14 -72 -30 -12 -13 -28 -24 -34 -24 -7 0 -40 -18 -74
-40 -34 -22 -65 -40 -69 -40 -4 0 -37 -15 -72 -34 -36 -19 -101 -46 -145 -61
-44 -14 -99 -35 -122 -46 -24 -10 -47 -19 -51 -19 -9 0 -157 -120 -182 -148
-8 -10 -31 -43 -50 -74 -19 -32 -38 -58 -42 -58 -4 0 -8 -8 -8 -19 0 -10 -17
-38 -38 -62 -21 -24 -62 -79 -90 -121 -29 -43 -69 -90 -89 -105 -63 -48 -254
-246 -358 -372 -98 -118 -178 -202 -186 -194 -4 5 -13 71 -19 148 -6 77 -15
158 -20 180 -6 22 -15 81 -20 132 -7 64 -20 118 -44 180 -19 48 -58 151 -86
228 -28 76 -56 148 -62 159 -6 11 -10 44 -9 74 1 46 -4 65 -40 131 -23 42 -59
109 -80 148 -21 40 -51 92 -67 115 -64 94 -122 198 -122 218 0 23 -70 132
-118 185 -15 17 -42 41 -60 54 -17 12 -53 48 -78 79 -25 31 -52 65 -60 75 -8
9 -14 20 -14 23 0 26 -203 237 -216 224 -6 -6 -17 -5 -31 5 -20 14 -20 19 -15
334 l5 320 -27 7 c-14 3 -26 11 -26 18 0 6 -5 40 -10 75 -8 56 -14 70 -53 110
-24 25 -70 80 -102 121 -85 109 -172 197 -208 211 -18 7 -60 25 -94 41 -34 16
-88 33 -120 38 -32 5 -114 18 -183 30 -147 26 -154 30 -223 154 -28 50 -59 91
-77 103 -16 10 -54 50 -84 87 -31 39 -75 81 -100 95 -25 14 -110 82 -191 151
-247 212 -258 220 -344 261 -45 22 -112 59 -147 83 -93 64 -153 80 -266 72
-50 -4 -123 -14 -161 -22 l-70 -14 -53 42 c-171 135 -282 199 -604 344 -111
50 -187 63 -272 45z m919 -2941 c15 -47 12 -62 -23 -120 -9 -15 -13 -40 -10
-62 3 -26 0 -38 -11 -42 -24 -10 -31 -7 -38 14 -5 15 -15 20 -40 20 -31 0 -34
3 -40 41 -7 41 -2 51 55 109 8 8 26 32 40 53 14 20 31 36 39 35 7 -2 20 -23
28 -48z m4757 -2636 c12 -11 16 -36 17 -92 1 -181 -3 -262 -17 -323 -8 -35
-21 -95 -29 -134 -8 -38 -22 -99 -31 -135 -19 -73 -22 -87 -57 -260 -13 -69
-30 -174 -37 -235 -6 -60 -14 -119 -17 -130 -3 -11 -9 -126 -13 -255 -4 -129
-10 -243 -15 -252 -6 -14 -20 -18 -69 -18 -55 0 -65 3 -95 31 l-34 31 6 166
c5 108 3 199 -5 257 -7 57 -12 281 -13 615 l-2 525 25 38 c30 45 79 77 119 77
16 0 38 7 49 15 10 8 26 15 34 15 37 1 90 23 121 50 39 35 42 35 63 14z
m-1448 -2109 c-33 -51 -49 -20 -19 38 16 31 16 31 26 10 7 -17 6 -29 -7 -48z
m-168 -1014 c7 -21 12 -64 12 -96 l0 -58 -20 26 c-16 20 -20 40 -20 96 0 79
11 91 28 32z"/>
</g>
</svg>
